<svg xmlns="http://www.w3.org/2000/svg" width="1200" height="400" viewBox="0 0 1200 400">
  <defs>
    <linearGradient id="grad1" x1="0%" y1="0%" x2="100%" y2="0%">
      <stop offset="0%" style="stop-color:#3b82f6;stop-opacity:0.8" />
      <stop offset="100%" style="stop-color:#1d4ed8;stop-opacity:0.9" />
    </linearGradient>
    <clipPath id="roundedRect">
      <rect width="1200" height="400" rx="20" ry="20" />
    </clipPath>
  </defs>
  <g clip-path="url(#roundedRect)">
    <rect width="1200" height="400" fill="url(#grad1)" />
    <circle cx="1100" cy="50" r="80" fill="#60a5fa" opacity="0.3" />
    <circle cx="100" cy="350" r="120" fill="#60a5fa" opacity="0.3" />
    <circle cx="600" cy="-50" r="150" fill="#93c5fd" opacity="0.2" />
    <path d="M0,250 Q300,300 600,200 T1200,250" stroke="#bfdbfe" fill="none" stroke-width="5" opacity="0.5" />
    <path d="M0,280 Q300,350 600,250 T1200,280" stroke="#bfdbfe" fill="none" stroke-width="3" opacity="0.3" />
  </g>
  <g transform="translate(750, 200)">
    <circle cx="0" cy="0" r="120" fill="#ffffff" opacity="0.15" />
    <path d="M-60,-20 L-60,20 L-20,0 Z" fill="#ffffff" />
    <circle cx="0" cy="0" r="40" fill="none" stroke="#ffffff" stroke-width="4" />
  </g>
  <g transform="translate(300, 200)">
    <rect x="-80" y="-60" width="160" height="120" rx="10" fill="#ffffff" opacity="0.15" />
    <rect x="-60" y="-40" width="120" height="80" rx="5" fill="none" stroke="#ffffff" stroke-width="3" />
    <line x1="-40" y1="-20" x2="40" y2="-20" stroke="#ffffff" stroke-width="3" />
    <line x1="-40" y1="0" x2="20" y2="0" stroke="#ffffff" stroke-width="3" />
    <line x1="-40" y1="20" x2="30" y2="20" stroke="#ffffff" stroke-width="3" />
  </g>
</svg>