<svg width="400" height="400" viewBox="0 0 400 400" fill="none" xmlns="http://www.w3.org/2000/svg">
  <!-- Background shape -->
  <circle cx="200" cy="200" r="180" fill="#F0F9FF" />
  
  <!-- Patient body -->
  <path d="M160 320C160 320 140 280 140 240C140 200 160 180 200 180C240 180 260 200 260 240C260 280 240 320 240 320H160Z" fill="#FFFFFF" stroke="#0EA5E9" stroke-width="4"/>
  
  <!-- Patient head -->
  <circle cx="200" cy="140" r="60" fill="#FFFFFF" stroke="#0EA5E9" stroke-width="4"/>
  
  <!-- Patient face -->
  <circle cx="180" cy="130" r="5" fill="#0369A1"/>
  <circle cx="220" cy="130" r="5" fill="#0369A1"/>
  <path d="M180 160C180 160 200 150 220 160" stroke="#0369A1" stroke-width="3" stroke-linecap="round"/>
  
  <!-- Patient arm with bandage -->
  <path d="M260 240C260 240 280 230 300 240" stroke="#0EA5E9" stroke-width="4" stroke-linecap="round"/>
  <rect x="290" y="230" width="30" height="20" rx="5" fill="#FFFFFF" stroke="#0EA5E9" stroke-width="2"/>
  
  <!-- Patient hair -->
  <path d="M150 100C150 100 170 70 200 70C230 70 250 100 250 100" fill="#A16207"/>
  <path d="M150 100C150 100 160 120 160 140M250 100C250 100 240 120 240 140" stroke="#A16207" stroke-width="4"/>
  
  <!-- Medical chart -->
  <rect x="100" y="240" width="40" height="60" rx="5" fill="#FFFFFF" stroke="#0EA5E9" stroke-width="2"/>
  <path d="M110 260H130M110 280H120" stroke="#0EA5E9" stroke-width="2" stroke-linecap="round"/>
  
  <!-- Health symbols -->
  <path d="M100 120C100 120 90 110 100 100C110 110 100 120 100 120Z" fill="#0EA5E9"/>
  <path d="M300 120C300 120 290 110 300 100C310 110 300 120 300 120Z" fill="#0EA5E9"/>
  
  <!-- Heartbeat line -->
  <path d="M140 340H260" stroke="#0EA5E9" stroke-width="2"/>
  <path d="M160 340L180 320L200 360L220 320L240 340" stroke="#EF4444" stroke-width="3" stroke-linecap="round" stroke-linejoin="round"/>
</svg>