<svg width="300" height="600" viewBox="0 0 300 600" fill="none" xmlns="http://www.w3.org/2000/svg">
  <!-- Phone outline -->
  <rect x="25" y="10" width="250" height="580" rx="30" fill="#1E293B" />
  <rect x="35" y="20" width="230" height="560" rx="25" fill="#FFFFFF" />
  
  <!-- Status bar -->
  <rect x="35" y="20" width="230" height="30" rx="10" fill="#F1F5F9" />
  <circle cx="55" cy="35" r="5" fill="#3B82F6" />
  <rect x="70" y="32" width="40" height="6" rx="3" fill="#94A3B8" />
  <rect x="200" y="32" width="20" height="6" rx="3" fill="#94A3B8" />
  <rect x="230" y="32" width="15" height="6" rx="3" fill="#94A3B8" />
  
  <!-- App header -->
  <rect x="35" y="50" width="230" height="60" rx="5" fill="#3B82F6" />
  <circle cx="65" cy="80" r="15" fill="#FFFFFF" />
  <path d="M65 70V90M55 80H75" stroke="#3B82F6" stroke-width="2" stroke-linecap="round" />
  <rect x="90" y="70" width="100" height="8" rx="4" fill="#FFFFFF" />
  <rect x="90" y="85" width="60" height="6" rx="3" fill="#BFDBFE" />
  <circle cx="215" cy="80" r="15" fill="#FFFFFF" opacity="0.2" />
  <path d="M210 75L220 85M210 85L220 75" stroke="#FFFFFF" stroke-width="2" stroke-linecap="round" />
  
  <!-- Navigation tabs -->
  <rect x="35" y="110" width="230" height="40" rx="5" fill="#F8FAFC" />
  <rect x="45" y="120" width="60" height="20" rx="10" fill="#3B82F6" />
  <rect x="115" y="120" width="60" height="20" rx="10" fill="#F1F5F9" />
  <rect x="185" y="120" width="60" height="20" rx="10" fill="#F1F5F9" />
  
  <!-- Doctor card -->
  <rect x="45" y="170" width="210" height="100" rx="10" fill="#FFFFFF" stroke="#E2E8F0" />
  <circle cx="85" cy="210" r="25" fill="#BFDBFE" />
  <path d="M75 210C75 210 80 215 85 215C90 215 95 210 95 210" stroke="#3B82F6" stroke-width="2" stroke-linecap="round" />
  <circle cx="80" cy="205" r="3" fill="#3B82F6" />
  <circle cx="90" cy="205" r="3" fill="#3B82F6" />
  <rect x="120" y="185" width="100" height="10" rx="5" fill="#1E293B" />
  <rect x="120" y="205" width="80" height="8" rx="4" fill="#94A3B8" />
  <rect x="120" y="220" width="60" height="8" rx="4" fill="#94A3B8" />
  <rect x="120" y="240" width="40" height="20" rx="10" fill="#3B82F6" />
  <rect x="170" y="240" width="40" height="20" rx="10" fill="#F1F5F9" stroke="#CBD5E1" />
  
  <!-- Appointment card -->
  <rect x="45" y="290" width="210" height="80" rx="10" fill="#FFFFFF" stroke="#E2E8F0" />
  <rect x="55" y="300" width="50" height="60" rx="5" fill="#EFF6FF" />
  <rect x="65" y="310" width="30" height="10" rx="5" fill="#3B82F6" />
  <rect x="65" y="330" width="30" height="20" rx="5" fill="#93C5FD" />
  <rect x="115" y="305" width="130" height="10" rx="5" fill="#1E293B" />
  <rect x="115" y="325" width="100" height="8" rx="4" fill="#94A3B8" />
  <rect x="115" y="340" width="60" height="8" rx="4" fill="#94A3B8" />
  
  <!-- Health metrics -->
  <rect x="45" y="390" width="210" height="100" rx="10" fill="#FFFFFF" stroke="#E2E8F0" />
  <rect x="55" y="400" width="190" height="30" rx="5" fill="#F8FAFC" />
  <path d="M65 415H235" stroke="#CBD5E1" stroke-width="1" />
  <path d="M85 425L105 405L125 420L145 400L165 415L185 395L205 410" stroke="#3B82F6" stroke-width="2" stroke-linecap="round" stroke-linejoin="round" />
  <rect x="55" y="440" width="90" height="40" rx="5" fill="#F8FAFC" />
  <circle cx="85" cy="460" r="15" fill="#BFDBFE" />
  <path d="M85 450V470M75 460H95" stroke="#3B82F6" stroke-width="2" stroke-linecap="round" />
  <rect x="110" y="455" width="30" height="10" rx="5" fill="#94A3B8" />
  <rect x="155" y="440" width="90" height="40" rx="5" fill="#F8FAFC" />
  <path d="M175 450L185 470L195 450" stroke="#3B82F6" stroke-width="2" stroke-linecap="round" stroke-linejoin="round" />
  <rect x="205" y="455" width="30" height="10" rx="5" fill="#94A3B8" />
  
  <!-- Bottom navigation -->
  <rect x="35" y="550" width="230" height="30" rx="5" fill="#F8FAFC" />
  <circle cx="65" cy="565" r="10" fill="#3B82F6" />
  <circle cx="150" cy="565" r="10" fill="#E2E8F0" />
  <circle cx="235" cy="565" r="10" fill="#E2E8F0" />
</svg>